<svg xmlns="http://www.w3.org/2000/svg" version="1.1" xmlns:xlink="http://www.w3.org/1999/xlink" xmlns:svgjs="http://svgjs.dev/svgjs" viewBox="0 0 800 800"><g><circle r="44.5" cx="0" cy="0" fill="hsl(190, 85%, 50%)"></circle><circle r="44.5" cx="0" cy="89" fill="hsl(190, 85%, 50%)"></circle><circle r="44.5" cx="0" cy="178" fill="hsl(190, 85%, 50%)"></circle><circle r="44.5" cx="0" cy="267" fill="hsl(191, 85%, 50%)"></circle><circle r="44.5" cx="0" cy="356" fill="hsl(193, 85%, 50%)"></circle><circle r="44.5" cx="0" cy="445" fill="hsl(195, 85%, 50%)"></circle><circle r="44.5" cx="0" cy="534" fill="hsl(200, 85%, 50%)"></circle><circle r="44.5" cx="0" cy="623" fill="hsl(201, 85%, 50%)"></circle><circle r="44.5" cx="0" cy="712" fill="hsl(201, 85%, 50%)"></circle><circle r="44.5" cx="0" cy="801" fill="hsl(198, 85%, 50%)"></circle><circle r="44.5" cx="0" cy="890" fill="hsl(198, 85%, 50%)"></circle><circle r="44.5" cx="89" cy="0" fill="hsl(184, 85%, 50%)"></circle><circle r="44.5" cx="89" cy="89" fill="hsl(184, 85%, 50%)"></circle><circle r="44.5" cx="89" cy="178" fill="hsl(185, 85%, 50%)"></circle><circle r="44.5" cx="89" cy="267" fill="hsl(187, 85%, 50%)"></circle><circle r="44.5" cx="89" cy="356" fill="hsl(189, 85%, 50%)"></circle><circle r="44.5" cx="89" cy="445" fill="hsl(192, 85%, 50%)"></circle><circle r="44.5" cx="89" cy="534" fill="hsl(198, 85%, 50%)"></circle><circle r="44.5" cx="89" cy="623" fill="hsl(200, 85%, 50%)"></circle><circle r="44.5" cx="89" cy="712" fill="hsl(199, 85%, 50%)"></circle><circle r="44.5" cx="89" cy="801" fill="hsl(196, 85%, 50%)"></circle><circle r="44.5" cx="89" cy="890" fill="hsl(196, 85%, 50%)"></circle><circle r="44.5" cx="178" cy="0" fill="hsl(179, 85%, 50%)"></circle><circle r="44.5" cx="178" cy="89" fill="hsl(180, 85%, 50%)"></circle><circle r="44.5" cx="178" cy="178" fill="hsl(181, 85%, 50%)"></circle><circle r="44.5" cx="178" cy="267" fill="hsl(182, 85%, 50%)"></circle><circle r="44.5" cx="178" cy="356" fill="hsl(183, 85%, 50%)"></circle><circle r="44.5" cx="178" cy="445" fill="hsl(185, 85%, 50%)"></circle><circle r="44.5" cx="178" cy="534" fill="hsl(193, 85%, 50%)"></circle><circle r="44.5" cx="178" cy="623" fill="hsl(195, 85%, 50%)"></circle><circle r="44.5" cx="178" cy="712" fill="hsl(195, 85%, 50%)"></circle><circle r="44.5" cx="178" cy="801" fill="hsl(191, 85%, 50%)"></circle><circle r="44.5" cx="178" cy="890" fill="hsl(191, 85%, 50%)"></circle><circle r="44.5" cx="267" cy="0" fill="hsl(179, 85%, 50%)"></circle><circle r="44.5" cx="267" cy="89" fill="hsl(179, 85%, 50%)"></circle><circle r="44.5" cx="267" cy="178" fill="hsl(178, 85%, 50%)"></circle><circle r="44.5" cx="267" cy="267" fill="hsl(174, 85%, 50%)"></circle><circle r="44.5" cx="267" cy="356" fill="hsl(174, 85%, 50%)"></circle><circle r="44.5" cx="267" cy="445" fill="hsl(176, 85%, 50%)"></circle><circle r="44.5" cx="267" cy="534" fill="hsl(185, 85%, 50%)"></circle><circle r="44.5" cx="267" cy="623" fill="hsl(189, 85%, 50%)"></circle><circle r="44.5" cx="267" cy="712" fill="hsl(190, 85%, 50%)"></circle><circle r="44.5" cx="267" cy="801" fill="hsl(186, 85%, 50%)"></circle><circle r="44.5" cx="267" cy="890" fill="hsl(186, 85%, 50%)"></circle><circle r="44.5" cx="356" cy="0" fill="hsl(181, 85%, 50%)"></circle><circle r="44.5" cx="356" cy="89" fill="hsl(180, 85%, 50%)"></circle><circle r="44.5" cx="356" cy="178" fill="hsl(178, 85%, 50%)"></circle><circle r="44.5" cx="356" cy="267" fill="hsl(174, 85%, 50%)"></circle><circle r="44.5" cx="356" cy="356" fill="hsl(174, 85%, 50%)"></circle><circle r="44.5" cx="356" cy="445" fill="hsl(176, 85%, 50%)"></circle><circle r="44.5" cx="356" cy="534" fill="hsl(187, 85%, 50%)"></circle><circle r="44.5" cx="356" cy="623" fill="hsl(192, 85%, 50%)"></circle><circle r="44.5" cx="356" cy="712" fill="hsl(192, 85%, 50%)"></circle><circle r="44.5" cx="356" cy="801" fill="hsl(189, 85%, 50%)"></circle><circle r="44.5" cx="356" cy="890" fill="hsl(189, 85%, 50%)"></circle><circle r="44.5" cx="445" cy="0" fill="hsl(182, 85%, 50%)"></circle><circle r="44.5" cx="445" cy="89" fill="hsl(181, 85%, 50%)"></circle><circle r="44.5" cx="445" cy="178" fill="hsl(179, 85%, 50%)"></circle><circle r="44.5" cx="445" cy="267" fill="hsl(176, 85%, 50%)"></circle><circle r="44.5" cx="445" cy="356" fill="hsl(176, 85%, 50%)"></circle><circle r="44.5" cx="445" cy="445" fill="hsl(181, 85%, 50%)"></circle><circle r="44.5" cx="445" cy="534" fill="hsl(193, 85%, 50%)"></circle><circle r="44.5" cx="445" cy="623" fill="hsl(197, 85%, 50%)"></circle><circle r="44.5" cx="445" cy="712" fill="hsl(197, 85%, 50%)"></circle><circle r="44.5" cx="445" cy="801" fill="hsl(194, 85%, 50%)"></circle><circle r="44.5" cx="445" cy="890" fill="hsl(194, 85%, 50%)"></circle><circle r="44.5" cx="534" cy="0" fill="hsl(179, 85%, 50%)"></circle><circle r="44.5" cx="534" cy="89" fill="hsl(179, 85%, 50%)"></circle><circle r="44.5" cx="534" cy="178" fill="hsl(179, 85%, 50%)"></circle><circle r="44.5" cx="534" cy="267" fill="hsl(184, 85%, 50%)"></circle><circle r="44.5" cx="534" cy="356" fill="hsl(187, 85%, 50%)"></circle><circle r="44.5" cx="534" cy="445" fill="hsl(193, 85%, 50%)"></circle><circle r="44.5" cx="534" cy="534" fill="hsl(204, 85%, 50%)"></circle><circle r="44.5" cx="534" cy="623" fill="hsl(206, 85%, 50%)"></circle><circle r="44.5" cx="534" cy="712" fill="hsl(203, 85%, 50%)"></circle><circle r="44.5" cx="534" cy="801" fill="hsl(198, 85%, 50%)"></circle><circle r="44.5" cx="534" cy="890" fill="hsl(198, 85%, 50%)"></circle><circle r="44.5" cx="623" cy="0" fill="hsl(178, 85%, 50%)"></circle><circle r="44.5" cx="623" cy="89" fill="hsl(178, 85%, 50%)"></circle><circle r="44.5" cx="623" cy="178" fill="hsl(180, 85%, 50%)"></circle><circle r="44.5" cx="623" cy="267" fill="hsl(188, 85%, 50%)"></circle><circle r="44.5" cx="623" cy="356" fill="hsl(192, 85%, 50%)"></circle><circle r="44.5" cx="623" cy="445" fill="hsl(197, 85%, 50%)"></circle><circle r="44.5" cx="623" cy="534" fill="hsl(206, 85%, 50%)"></circle><circle r="44.5" cx="623" cy="623" fill="hsl(205, 85%, 50%)"></circle><circle r="44.5" cx="623" cy="712" fill="hsl(201, 85%, 50%)"></circle><circle r="44.5" cx="623" cy="801" fill="hsl(194, 85%, 50%)"></circle><circle r="44.5" cx="623" cy="890" fill="hsl(194, 85%, 50%)"></circle><circle r="44.5" cx="712" cy="0" fill="hsl(179, 85%, 50%)"></circle><circle r="44.5" cx="712" cy="89" fill="hsl(180, 85%, 50%)"></circle><circle r="44.5" cx="712" cy="178" fill="hsl(183, 85%, 50%)"></circle><circle r="44.5" cx="712" cy="267" fill="hsl(192, 85%, 50%)"></circle><circle r="44.5" cx="712" cy="356" fill="hsl(196, 85%, 50%)"></circle><circle r="44.5" cx="712" cy="445" fill="hsl(200, 85%, 50%)"></circle><circle r="44.5" cx="712" cy="534" fill="hsl(204, 85%, 50%)"></circle><circle r="44.5" cx="712" cy="623" fill="hsl(201, 85%, 50%)"></circle><circle r="44.5" cx="712" cy="712" fill="hsl(196, 85%, 50%)"></circle><circle r="44.5" cx="712" cy="801" fill="hsl(189, 85%, 50%)"></circle><circle r="44.5" cx="712" cy="890" fill="hsl(189, 85%, 50%)"></circle><circle r="44.5" cx="801" cy="0" fill="hsl(181, 85%, 50%)"></circle><circle r="44.5" cx="801" cy="89" fill="hsl(183, 85%, 50%)"></circle><circle r="44.5" cx="801" cy="178" fill="hsl(187, 85%, 50%)"></circle><circle r="44.5" cx="801" cy="267" fill="hsl(196, 85%, 50%)"></circle><circle r="44.5" cx="801" cy="356" fill="hsl(199, 85%, 50%)"></circle><circle r="44.5" cx="801" cy="445" fill="hsl(201, 85%, 50%)"></circle><circle r="44.5" cx="801" cy="534" fill="hsl(200, 85%, 50%)"></circle><circle r="44.5" cx="801" cy="623" fill="hsl(196, 85%, 50%)"></circle><circle r="44.5" cx="801" cy="712" fill="hsl(191, 85%, 50%)"></circle><circle r="44.5" cx="801" cy="801" fill="hsl(185, 85%, 50%)"></circle><circle r="44.5" cx="801" cy="890" fill="hsl(185, 85%, 50%)"></circle><circle r="44.5" cx="890" cy="0" fill="hsl(181, 85%, 50%)"></circle><circle r="44.5" cx="890" cy="89" fill="hsl(183, 85%, 50%)"></circle><circle r="44.5" cx="890" cy="178" fill="hsl(187, 85%, 50%)"></circle><circle r="44.5" cx="890" cy="267" fill="hsl(196, 85%, 50%)"></circle><circle r="44.5" cx="890" cy="356" fill="hsl(199, 85%, 50%)"></circle><circle r="44.5" cx="890" cy="445" fill="hsl(201, 85%, 50%)"></circle><circle r="44.5" cx="890" cy="534" fill="hsl(200, 85%, 50%)"></circle><circle r="44.5" cx="890" cy="623" fill="hsl(196, 85%, 50%)"></circle><circle r="44.5" cx="890" cy="712" fill="hsl(191, 85%, 50%)"></circle><circle r="44.5" cx="890" cy="801" fill="hsl(185, 85%, 50%)"></circle><circle r="44.5" cx="890" cy="890" fill="hsl(185, 85%, 50%)"></circle><circle r="44.5" cx="979" cy="0" fill="hsl(181, 85%, 50%)"></circle><circle r="44.5" cx="979" cy="89" fill="hsl(183, 85%, 50%)"></circle><circle r="44.5" cx="979" cy="178" fill="hsl(187, 85%, 50%)"></circle><circle r="44.5" cx="979" cy="267" fill="hsl(196, 85%, 50%)"></circle><circle r="44.5" cx="979" cy="356" fill="hsl(199, 85%, 50%)"></circle><circle r="44.5" cx="979" cy="445" fill="hsl(201, 85%, 50%)"></circle><circle r="44.5" cx="979" cy="534" fill="hsl(200, 85%, 50%)"></circle><circle r="44.5" cx="979" cy="623" fill="hsl(196, 85%, 50%)"></circle><circle r="44.5" cx="979" cy="712" fill="hsl(191, 85%, 50%)"></circle><circle r="44.5" cx="979" cy="801" fill="hsl(185, 85%, 50%)"></circle><circle r="44.5" cx="979" cy="890" fill="hsl(185, 85%, 50%)"></circle></g><g transform="matrix(1,0,0,1,-44.5,0)"><circle r="44.5" cx="0" cy="44.5" fill="hsl(190, 85%, 50%)"></circle><circle r="44.5" cx="0" cy="133.5" fill="hsl(190, 85%, 50%)"></circle><circle r="44.5" cx="0" cy="222.5" fill="hsl(190, 85%, 50%)"></circle><circle r="44.5" cx="0" cy="311.5" fill="hsl(191, 85%, 50%)"></circle><circle r="44.5" cx="0" cy="400.5" fill="hsl(195, 85%, 50%)"></circle><circle r="44.5" cx="0" cy="489.5" fill="hsl(198, 85%, 50%)"></circle><circle r="44.5" cx="0" cy="578.5" fill="hsl(200, 85%, 50%)"></circle><circle r="44.5" cx="0" cy="667.5" fill="hsl(201, 85%, 50%)"></circle><circle r="44.5" cx="0" cy="756.5" fill="hsl(198, 85%, 50%)"></circle><circle r="44.5" cx="0" cy="845.5" fill="hsl(198, 85%, 50%)"></circle><circle r="44.5" cx="89" cy="44.5" fill="hsl(184, 85%, 50%)"></circle><circle r="44.5" cx="89" cy="133.5" fill="hsl(185, 85%, 50%)"></circle><circle r="44.5" cx="89" cy="222.5" fill="hsl(186, 85%, 50%)"></circle><circle r="44.5" cx="89" cy="311.5" fill="hsl(187, 85%, 50%)"></circle><circle r="44.5" cx="89" cy="400.5" fill="hsl(192, 85%, 50%)"></circle><circle r="44.5" cx="89" cy="489.5" fill="hsl(195, 85%, 50%)"></circle><circle r="44.5" cx="89" cy="578.5" fill="hsl(198, 85%, 50%)"></circle><circle r="44.5" cx="89" cy="667.5" fill="hsl(199, 85%, 50%)"></circle><circle r="44.5" cx="89" cy="756.5" fill="hsl(196, 85%, 50%)"></circle><circle r="44.5" cx="89" cy="845.5" fill="hsl(196, 85%, 50%)"></circle><circle r="44.5" cx="178" cy="44.5" fill="hsl(179, 85%, 50%)"></circle><circle r="44.5" cx="178" cy="133.5" fill="hsl(181, 85%, 50%)"></circle><circle r="44.5" cx="178" cy="222.5" fill="hsl(182, 85%, 50%)"></circle><circle r="44.5" cx="178" cy="311.5" fill="hsl(182, 85%, 50%)"></circle><circle r="44.5" cx="178" cy="400.5" fill="hsl(185, 85%, 50%)"></circle><circle r="44.5" cx="178" cy="489.5" fill="hsl(189, 85%, 50%)"></circle><circle r="44.5" cx="178" cy="578.5" fill="hsl(193, 85%, 50%)"></circle><circle r="44.5" cx="178" cy="667.5" fill="hsl(195, 85%, 50%)"></circle><circle r="44.5" cx="178" cy="756.5" fill="hsl(191, 85%, 50%)"></circle><circle r="44.5" cx="178" cy="845.5" fill="hsl(191, 85%, 50%)"></circle><circle r="44.5" cx="267" cy="44.5" fill="hsl(179, 85%, 50%)"></circle><circle r="44.5" cx="267" cy="133.5" fill="hsl(178, 85%, 50%)"></circle><circle r="44.5" cx="267" cy="222.5" fill="hsl(176, 85%, 50%)"></circle><circle r="44.5" cx="267" cy="311.5" fill="hsl(174, 85%, 50%)"></circle><circle r="44.5" cx="267" cy="400.5" fill="hsl(176, 85%, 50%)"></circle><circle r="44.5" cx="267" cy="489.5" fill="hsl(180, 85%, 50%)"></circle><circle r="44.5" cx="267" cy="578.5" fill="hsl(185, 85%, 50%)"></circle><circle r="44.5" cx="267" cy="667.5" fill="hsl(190, 85%, 50%)"></circle><circle r="44.5" cx="267" cy="756.5" fill="hsl(186, 85%, 50%)"></circle><circle r="44.5" cx="267" cy="845.5" fill="hsl(186, 85%, 50%)"></circle><circle r="44.5" cx="356" cy="44.5" fill="hsl(181, 85%, 50%)"></circle><circle r="44.5" cx="356" cy="133.5" fill="hsl(178, 85%, 50%)"></circle><circle r="44.5" cx="356" cy="222.5" fill="hsl(176, 85%, 50%)"></circle><circle r="44.5" cx="356" cy="311.5" fill="hsl(174, 85%, 50%)"></circle><circle r="44.5" cx="356" cy="400.5" fill="hsl(176, 85%, 50%)"></circle><circle r="44.5" cx="356" cy="489.5" fill="hsl(182, 85%, 50%)"></circle><circle r="44.5" cx="356" cy="578.5" fill="hsl(187, 85%, 50%)"></circle><circle r="44.5" cx="356" cy="667.5" fill="hsl(192, 85%, 50%)"></circle><circle r="44.5" cx="356" cy="756.5" fill="hsl(189, 85%, 50%)"></circle><circle r="44.5" cx="356" cy="845.5" fill="hsl(189, 85%, 50%)"></circle><circle r="44.5" cx="445" cy="44.5" fill="hsl(182, 85%, 50%)"></circle><circle r="44.5" cx="445" cy="133.5" fill="hsl(179, 85%, 50%)"></circle><circle r="44.5" cx="445" cy="222.5" fill="hsl(177, 85%, 50%)"></circle><circle r="44.5" cx="445" cy="311.5" fill="hsl(176, 85%, 50%)"></circle><circle r="44.5" cx="445" cy="400.5" fill="hsl(181, 85%, 50%)"></circle><circle r="44.5" cx="445" cy="489.5" fill="hsl(187, 85%, 50%)"></circle><circle r="44.5" cx="445" cy="578.5" fill="hsl(193, 85%, 50%)"></circle><circle r="44.5" cx="445" cy="667.5" fill="hsl(197, 85%, 50%)"></circle><circle r="44.5" cx="445" cy="756.5" fill="hsl(194, 85%, 50%)"></circle><circle r="44.5" cx="445" cy="845.5" fill="hsl(194, 85%, 50%)"></circle><circle r="44.5" cx="534" cy="44.5" fill="hsl(179, 85%, 50%)"></circle><circle r="44.5" cx="534" cy="133.5" fill="hsl(179, 85%, 50%)"></circle><circle r="44.5" cx="534" cy="222.5" fill="hsl(181, 85%, 50%)"></circle><circle r="44.5" cx="534" cy="311.5" fill="hsl(184, 85%, 50%)"></circle><circle r="44.5" cx="534" cy="400.5" fill="hsl(193, 85%, 50%)"></circle><circle r="44.5" cx="534" cy="489.5" fill="hsl(199, 85%, 50%)"></circle><circle r="44.5" cx="534" cy="578.5" fill="hsl(204, 85%, 50%)"></circle><circle r="44.5" cx="534" cy="667.5" fill="hsl(203, 85%, 50%)"></circle><circle r="44.5" cx="534" cy="756.5" fill="hsl(198, 85%, 50%)"></circle><circle r="44.5" cx="534" cy="845.5" fill="hsl(198, 85%, 50%)"></circle><circle r="44.5" cx="623" cy="44.5" fill="hsl(178, 85%, 50%)"></circle><circle r="44.5" cx="623" cy="133.5" fill="hsl(180, 85%, 50%)"></circle><circle r="44.5" cx="623" cy="222.5" fill="hsl(184, 85%, 50%)"></circle><circle r="44.5" cx="623" cy="311.5" fill="hsl(188, 85%, 50%)"></circle><circle r="44.5" cx="623" cy="400.5" fill="hsl(197, 85%, 50%)"></circle><circle r="44.5" cx="623" cy="489.5" fill="hsl(202, 85%, 50%)"></circle><circle r="44.5" cx="623" cy="578.5" fill="hsl(206, 85%, 50%)"></circle><circle r="44.5" cx="623" cy="667.5" fill="hsl(201, 85%, 50%)"></circle><circle r="44.5" cx="623" cy="756.5" fill="hsl(194, 85%, 50%)"></circle><circle r="44.5" cx="623" cy="845.5" fill="hsl(194, 85%, 50%)"></circle><circle r="44.5" cx="712" cy="44.5" fill="hsl(179, 85%, 50%)"></circle><circle r="44.5" cx="712" cy="133.5" fill="hsl(183, 85%, 50%)"></circle><circle r="44.5" cx="712" cy="222.5" fill="hsl(188, 85%, 50%)"></circle><circle r="44.5" cx="712" cy="311.5" fill="hsl(192, 85%, 50%)"></circle><circle r="44.5" cx="712" cy="400.5" fill="hsl(200, 85%, 50%)"></circle><circle r="44.5" cx="712" cy="489.5" fill="hsl(203, 85%, 50%)"></circle><circle r="44.5" cx="712" cy="578.5" fill="hsl(204, 85%, 50%)"></circle><circle r="44.5" cx="712" cy="667.5" fill="hsl(196, 85%, 50%)"></circle><circle r="44.5" cx="712" cy="756.5" fill="hsl(189, 85%, 50%)"></circle><circle r="44.5" cx="712" cy="845.5" fill="hsl(189, 85%, 50%)"></circle><circle r="44.5" cx="801" cy="44.5" fill="hsl(181, 85%, 50%)"></circle><circle r="44.5" cx="801" cy="133.5" fill="hsl(187, 85%, 50%)"></circle><circle r="44.5" cx="801" cy="222.5" fill="hsl(192, 85%, 50%)"></circle><circle r="44.5" cx="801" cy="311.5" fill="hsl(196, 85%, 50%)"></circle><circle r="44.5" cx="801" cy="400.5" fill="hsl(201, 85%, 50%)"></circle><circle r="44.5" cx="801" cy="489.5" fill="hsl(201, 85%, 50%)"></circle><circle r="44.5" cx="801" cy="578.5" fill="hsl(200, 85%, 50%)"></circle><circle r="44.5" cx="801" cy="667.5" fill="hsl(191, 85%, 50%)"></circle><circle r="44.5" cx="801" cy="756.5" fill="hsl(185, 85%, 50%)"></circle><circle r="44.5" cx="801" cy="845.5" fill="hsl(185, 85%, 50%)"></circle><circle r="44.5" cx="890" cy="44.5" fill="hsl(181, 85%, 50%)"></circle><circle r="44.5" cx="890" cy="133.5" fill="hsl(187, 85%, 50%)"></circle><circle r="44.5" cx="890" cy="222.5" fill="hsl(192, 85%, 50%)"></circle><circle r="44.5" cx="890" cy="311.5" fill="hsl(196, 85%, 50%)"></circle><circle r="44.5" cx="890" cy="400.5" fill="hsl(201, 85%, 50%)"></circle><circle r="44.5" cx="890" cy="489.5" fill="hsl(201, 85%, 50%)"></circle><circle r="44.5" cx="890" cy="578.5" fill="hsl(200, 85%, 50%)"></circle><circle r="44.5" cx="890" cy="667.5" fill="hsl(191, 85%, 50%)"></circle><circle r="44.5" cx="890" cy="756.5" fill="hsl(185, 85%, 50%)"></circle><circle r="44.5" cx="890" cy="845.5" fill="hsl(185, 85%, 50%)"></circle><circle r="44.5" cx="979" cy="44.5" fill="hsl(181, 85%, 50%)"></circle><circle r="44.5" cx="979" cy="133.5" fill="hsl(187, 85%, 50%)"></circle><circle r="44.5" cx="979" cy="222.5" fill="hsl(192, 85%, 50%)"></circle><circle r="44.5" cx="979" cy="311.5" fill="hsl(196, 85%, 50%)"></circle><circle r="44.5" cx="979" cy="400.5" fill="hsl(201, 85%, 50%)"></circle><circle r="44.5" cx="979" cy="489.5" fill="hsl(201, 85%, 50%)"></circle><circle r="44.5" cx="979" cy="578.5" fill="hsl(200, 85%, 50%)"></circle><circle r="44.5" cx="979" cy="667.5" fill="hsl(191, 85%, 50%)"></circle><circle r="44.5" cx="979" cy="756.5" fill="hsl(185, 85%, 50%)"></circle><circle r="44.5" cx="979" cy="845.5" fill="hsl(185, 85%, 50%)"></circle></g></svg>